<svg xmlns="http://www.w3.org/2000/svg" xmlns:xlink="http://www.w3.org/1999/xlink" width="576" zoomAndPan="magnify" viewBox="0 0 432 287.999989" height="384" preserveAspectRatio="xMidYMid meet" version="1.0"><defs><g/></defs><rect x="-43.2" width="518.4" fill="#ffffff" y="-28.799999" height="345.599986" fill-opacity="1"/><rect x="-43.2" width="518.4" fill="#000000" y="-28.799999" height="345.599986" fill-opacity="1"/><g fill="#ffffff" fill-opacity="1"><g transform="translate(15.220876, 144.156735)"><g><path d="M 13.765625 -26.953125 L 29.375 -26.953125 L 29.375 -24.15625 L 13.765625 -24.15625 L 13.765625 0 L 6.625 0 L 6.625 -48.734375 L 35.40625 -48.734375 L 35.40625 -43.8125 L 21.796875 -46.09375 C 19.335938 -46.09375 16.660156 -45.675781 13.765625 -44.84375 Z M 13.765625 -26.953125 "/></g></g></g><g fill="#ffffff" fill-opacity="1"><g transform="translate(50.630724, 144.156735)"><g><path d="M 13.84375 -23.265625 L 13.84375 0 L 6.625 0 L 6.625 -48.734375 L 22.53125 -48.734375 C 27.488281 -48.734375 31.550781 -47.628906 34.71875 -45.421875 C 37.882812 -43.210938 39.46875 -40.304688 39.46875 -36.703125 C 39.46875 -33.097656 38.203125 -30.25 35.671875 -28.15625 C 33.140625 -26.070312 29.71875 -24.640625 25.40625 -23.859375 L 45.125 0 L 36.59375 1.03125 L 19.515625 -23.265625 Z M 13.84375 -25.46875 L 18.546875 -25.46875 C 27.390625 -25.46875 31.8125 -28.953125 31.8125 -35.921875 C 31.8125 -37.109375 31.515625 -38.4375 30.921875 -39.90625 C 29.796875 -43 27.390625 -45.035156 23.703125 -46.015625 C 20.367188 -46.015625 17.082031 -45.597656 13.84375 -44.765625 Z M 13.84375 -25.46875 "/></g></g></g><g fill="#ffffff" fill-opacity="1"><g transform="translate(97.598463, 144.156735)"><g><path d="M 0.734375 0 L 22.609375 -49.921875 L 23.703125 -49.921875 L 45.578125 0 L 37.546875 0 L 32.03125 -13.25 L 10.15625 -13.25 L 4.71875 0 Z M 11.265625 -16.046875 L 30.84375 -16.046875 L 21.125 -39.90625 Z M 11.265625 -16.046875 "/></g></g></g><g fill="#ffffff" fill-opacity="1"><g transform="translate(143.903658, 144.156735)"><g><path d="M 37.46875 -20.984375 L 44.609375 -20.984375 L 44.609375 -1.625 C 40.390625 0.0507812 35.3125 0.890625 29.375 0.890625 C 22.15625 0.890625 15.945312 -1.023438 10.75 -4.859375 C 8.195312 -6.773438 6.160156 -9.289062 4.640625 -12.40625 C 3.117188 -15.519531 2.359375 -18.96875 2.359375 -22.75 C 2.359375 -26.53125 2.945312 -29.925781 4.125 -32.9375 C 5.300781 -35.957031 6.832031 -38.472656 8.71875 -40.484375 C 10.613281 -42.503906 12.8125 -44.222656 15.3125 -45.640625 C 19.976562 -48.296875 25.109375 -49.625 30.703125 -49.625 C 32.859375 -49.625 35.1875 -49.378906 37.6875 -48.890625 C 40.195312 -48.398438 42.113281 -47.882812 43.4375 -47.34375 L 42.703125 -42.40625 C 36.078125 -45.207031 30.578125 -46.609375 26.203125 -46.609375 C 21.253906 -45.328125 17.34375 -42.695312 14.46875 -38.71875 C 11.59375 -34.75 10.15625 -29.894531 10.15625 -24.15625 C 10.15625 -16.988281 12.046875 -11.453125 15.828125 -7.546875 C 19.609375 -3.640625 24.59375 -1.6875 30.78125 -1.6875 C 33.226562 -1.6875 35.457031 -1.929688 37.46875 -2.421875 Z M 37.46875 -20.984375 "/></g></g></g><g fill="#ffffff" fill-opacity="1"><g transform="translate(193.963327, 144.156735)"><g><path d="M 13.84375 -23.265625 L 13.84375 0 L 6.625 0 L 6.625 -48.734375 L 22.53125 -48.734375 C 27.488281 -48.734375 31.550781 -47.628906 34.71875 -45.421875 C 37.882812 -43.210938 39.46875 -40.304688 39.46875 -36.703125 C 39.46875 -33.097656 38.203125 -30.25 35.671875 -28.15625 C 33.140625 -26.070312 29.71875 -24.640625 25.40625 -23.859375 L 45.125 0 L 36.59375 1.03125 L 19.515625 -23.265625 Z M 13.84375 -25.46875 L 18.546875 -25.46875 C 27.390625 -25.46875 31.8125 -28.953125 31.8125 -35.921875 C 31.8125 -37.109375 31.515625 -38.4375 30.921875 -39.90625 C 29.796875 -43 27.390625 -45.035156 23.703125 -46.015625 C 20.367188 -46.015625 17.082031 -45.597656 13.84375 -44.765625 Z M 13.84375 -25.46875 "/></g></g></g><g fill="#ffffff" fill-opacity="1"><g transform="translate(240.931077, 144.156735)"><g><path d="M 0.734375 0 L 22.609375 -49.921875 L 23.703125 -49.921875 L 45.578125 0 L 37.546875 0 L 32.03125 -13.25 L 10.15625 -13.25 L 4.71875 0 Z M 11.265625 -16.046875 L 30.84375 -16.046875 L 21.125 -39.90625 Z M 11.265625 -16.046875 "/></g></g></g><g fill="#ffffff" fill-opacity="1"><g transform="translate(287.236272, 144.156735)"><g><path d="M 43.65625 0.8125 L 42.40625 0.8125 L 10.15625 -39.53125 L 9.859375 -39.53125 L 9.859375 0 L 6.625 0 L 6.625 -48.734375 L 12.078125 -48.734375 L 40.125 -13.328125 L 40.421875 -13.328125 L 40.421875 -48.734375 L 43.65625 -48.734375 Z M 43.65625 0.8125 "/></g></g></g><g fill="#ffffff" fill-opacity="1"><g transform="translate(337.516778, 144.156735)"><g><path d="M 29.078125 0.890625 C 21.472656 0.890625 15.066406 -1.171875 9.859375 -5.296875 C 4.660156 -9.421875 2.0625 -15.335938 2.0625 -23.046875 C 2.0625 -27.554688 2.921875 -31.578125 4.640625 -35.109375 C 6.359375 -38.648438 8.613281 -41.425781 11.40625 -43.4375 C 17.050781 -47.5625 23.382812 -49.625 30.40625 -49.625 C 34.476562 -49.625 38.722656 -48.890625 43.140625 -47.421875 L 42.40625 -42.40625 C 40.101562 -43.382812 38.3125 -44.117188 37.03125 -44.609375 C 33.351562 -45.941406 29.648438 -46.609375 25.921875 -46.609375 C 20.765625 -45.429688 16.796875 -42.878906 14.015625 -38.953125 C 11.242188 -35.023438 9.859375 -30.113281 9.859375 -24.21875 C 9.859375 -17.007812 11.75 -11.453125 15.53125 -7.546875 C 19.3125 -3.640625 24.289062 -1.6875 30.46875 -1.6875 C 36.65625 -1.6875 41.273438 -3.015625 44.328125 -5.671875 L 44.328125 -1.625 C 40.097656 0.0507812 35.015625 0.890625 29.078125 0.890625 Z M 29.078125 0.890625 "/></g></g></g><g fill="#ffffff" fill-opacity="1"><g transform="translate(384.042821, 144.156735)"><g><path d="M 6.625 0 L 6.625 -48.734375 L 36.15625 -48.734375 L 35.40625 -43.8125 L 21.71875 -46.09375 C 19.3125 -46.09375 16.660156 -45.675781 13.765625 -44.84375 L 13.765625 -26.953125 L 30.109375 -26.953125 L 30.109375 -24.15625 L 13.765625 -24.15625 L 13.765625 -2.65625 L 36.59375 -4.9375 L 35.859375 0 Z M 6.625 0 "/></g></g></g><g fill="#ffffff" fill-opacity="1"><g transform="translate(154.814618, 186.156731)"><g><path d="M 5.25 -13.359375 C 6.71875 -15.035156 8.328125 -15.875 10.078125 -15.875 C 11.835938 -15.875 13.269531 -15.175781 14.375 -13.78125 C 15.488281 -12.382812 16.046875 -10.429688 16.046875 -7.921875 C 16.046875 -5.410156 15.210938 -3.382812 13.546875 -1.84375 C 11.890625 -0.3125 9.867188 0.453125 7.484375 0.453125 C 5.703125 0.453125 4 0.00390625 2.375 -0.890625 L 2.375 -23.46875 L 5.25 -23.46875 Z M 5.25 -11.75 L 5.25 -1.921875 C 6.425781 -1.304688 7.640625 -1 8.890625 -1 C 10.148438 -1 11.164062 -1.613281 11.9375 -2.84375 C 12.707031 -4.082031 13.09375 -5.617188 13.09375 -7.453125 C 13.09375 -9.285156 12.710938 -10.75 11.953125 -11.84375 C 11.203125 -12.945312 10.253906 -13.679688 9.109375 -14.046875 C 8.484375 -14.003906 7.851562 -13.8125 7.21875 -13.46875 C 6.59375 -13.125 6.109375 -12.785156 5.765625 -12.453125 C 5.421875 -12.117188 5.25 -11.882812 5.25 -11.75 Z M 5.25 -11.75 "/></g></g></g><g fill="#ffffff" fill-opacity="1"><g transform="translate(171.988445, 186.156731)"><g><path d="M 13.125 -15.53125 L 14.4375 -15.53125 L 8.5625 0.515625 C 7.800781 2.617188 6.664062 4.3125 5.15625 5.59375 C 3.644531 6.882812 1.984375 7.539062 0.171875 7.5625 L 0.515625 5.84375 C 3.609375 5.726562 6.015625 3.722656 7.734375 -0.171875 L 0.75 -15.53125 L 3.8125 -15.53125 L 9.078125 -3.875 Z M 13.125 -15.53125 "/></g></g></g><g fill="#ffffff" fill-opacity="1"><g transform="translate(187.146643, 186.156731)"><g/></g></g><g fill="#ffffff" fill-opacity="1"><g transform="translate(195.733556, 186.156731)"><g><path d="M 5.46875 -23.46875 L 5.46875 0 L 2.578125 0 L 2.578125 -23.46875 Z M 5.46875 -23.46875 "/></g></g></g><g fill="#ffffff" fill-opacity="1"><g transform="translate(203.770901, 186.156731)"><g><path d="M 5.984375 -20.515625 C 5.984375 -18.035156 4.695312 -16.085938 2.125 -14.671875 L 1.71875 -15.328125 C 3.25 -16.535156 4.015625 -17.894531 4.015625 -19.40625 C 3.492188 -19.40625 3.007812 -19.578125 2.5625 -19.921875 C 2.113281 -20.265625 1.890625 -20.722656 1.890625 -21.296875 C 2.210938 -21.785156 2.726562 -22.21875 3.4375 -22.59375 C 4.144531 -22.96875 4.832031 -23.191406 5.5 -23.265625 C 5.820312 -22.328125 5.984375 -21.410156 5.984375 -20.515625 Z M 5.984375 -20.515625 "/></g></g></g><g fill="#ffffff" fill-opacity="1"><g transform="translate(211.464775, 186.156731)"><g><path d="M 13.4375 -23.15625 C 16.414062 -23.15625 18.878906 -22.175781 20.828125 -20.21875 C 22.773438 -18.257812 23.75 -15.539062 23.75 -12.0625 C 23.75 -9.8125 23.359375 -7.84375 22.578125 -6.15625 C 21.796875 -4.476562 20.773438 -3.179688 19.515625 -2.265625 C 17.066406 -0.484375 14.363281 0.40625 11.40625 0.40625 C 8.445312 0.40625 6 -0.582031 4.0625 -2.5625 C 2.132812 -4.539062 1.171875 -7.269531 1.171875 -10.75 C 1.171875 -12.5625 1.425781 -14.191406 1.9375 -15.640625 C 2.457031 -17.097656 3.132812 -18.285156 3.96875 -19.203125 C 4.800781 -20.117188 5.769531 -20.890625 6.875 -21.515625 C 8.882812 -22.609375 11.070312 -23.15625 13.4375 -23.15625 Z M 6.53125 -3.921875 C 7.125 -2.910156 7.921875 -2.125 8.921875 -1.5625 C 9.929688 -1 11.09375 -0.71875 12.40625 -0.71875 C 13.726562 -0.71875 14.90625 -1.050781 15.9375 -1.71875 C 16.96875 -2.382812 17.769531 -3.253906 18.34375 -4.328125 C 19.507812 -6.484375 20.09375 -8.796875 20.09375 -11.265625 C 20.09375 -14.316406 19.488281 -16.769531 18.28125 -18.625 C 16.925781 -20.707031 14.691406 -21.75 11.578125 -21.75 C 9.359375 -20.96875 7.675781 -19.625 6.53125 -17.71875 C 5.382812 -15.820312 4.8125 -13.671875 4.8125 -11.265625 C 4.8125 -8.335938 5.382812 -5.890625 6.53125 -3.921875 Z M 6.53125 -3.921875 "/></g></g></g><g fill="#ffffff" fill-opacity="1"><g transform="translate(236.366819, 186.156731)"><g><path d="M 5.078125 0 L 2.203125 0 L 2.203125 -15.53125 L 4.1875 -15.53125 L 4.984375 -12.640625 C 5.441406 -13.441406 6.164062 -14.195312 7.15625 -14.90625 C 8.15625 -15.625 9.179688 -16.0625 10.234375 -16.21875 L 10.578125 -13.84375 C 9.734375 -13.84375 8.773438 -13.578125 7.703125 -13.046875 C 6.640625 -12.523438 5.765625 -11.941406 5.078125 -11.296875 Z M 5.078125 0 "/></g></g></g><g fill="#ffffff" fill-opacity="1"><g transform="translate(247.289368, 186.156731)"><g><path d="M 3.609375 -8.453125 C 3.609375 -5.972656 4.160156 -4.191406 5.265625 -3.109375 C 6.378906 -2.023438 7.734375 -1.484375 9.328125 -1.484375 C 10.921875 -1.484375 12.394531 -1.789062 13.75 -2.40625 L 13.75 -1.203125 C 11.863281 -0.128906 10.0625 0.40625 8.34375 0.40625 C 6.125 0.40625 4.328125 -0.265625 2.953125 -1.609375 C 1.578125 -2.960938 0.890625 -4.921875 0.890625 -7.484375 C 0.890625 -10.054688 1.648438 -12.109375 3.171875 -13.640625 C 4.703125 -15.171875 6.539062 -15.9375 8.6875 -15.9375 C 10.363281 -15.9375 11.757812 -15.273438 12.875 -13.953125 C 14 -12.640625 14.5625 -10.804688 14.5625 -8.453125 Z M 6.9375 -14.328125 C 6.132812 -13.941406 5.445312 -13.316406 4.875 -12.453125 C 4.300781 -11.597656 3.925781 -10.609375 3.75 -9.484375 L 11.78125 -9.484375 C 11.71875 -10.441406 11.492188 -11.265625 11.109375 -11.953125 C 10.734375 -12.640625 10.285156 -13.144531 9.765625 -13.46875 C 8.816406 -14.039062 7.875 -14.328125 6.9375 -14.328125 Z M 7.9375 -17.421875 L 6.5625 -17.421875 L 12.46875 -23.875 L 14.390625 -22.15625 Z M 7.9375 -17.421875 "/></g></g></g><g fill="#ffffff" fill-opacity="1"><g transform="translate(262.53973, 186.156731)"><g><path d="M 9.796875 -3.640625 L 9.796875 -7.1875 C 8.140625 -7.070312 6.785156 -6.703125 5.734375 -6.078125 C 4.679688 -5.460938 4.15625 -4.800781 4.15625 -4.09375 C 4.15625 -3.382812 4.335938 -2.769531 4.703125 -2.25 C 5.066406 -1.738281 5.535156 -1.378906 6.109375 -1.171875 C 6.867188 -1.304688 7.671875 -1.679688 8.515625 -2.296875 C 9.367188 -2.921875 9.796875 -3.367188 9.796875 -3.640625 Z M 12.609375 -4.5625 C 12.609375 -2.9375 13.203125 -1.703125 14.390625 -0.859375 L 12.609375 0.453125 L 9.828125 -2.0625 C 8.015625 -0.414062 6.34375 0.40625 4.8125 0.40625 C 3.800781 0.40625 2.9375 0.0859375 2.21875 -0.546875 C 1.5 -1.191406 1.140625 -2 1.140625 -2.96875 C 1.140625 -3.945312 1.429688 -4.753906 2.015625 -5.390625 C 2.597656 -6.035156 3.367188 -6.53125 4.328125 -6.875 C 5.972656 -7.488281 7.796875 -7.878906 9.796875 -8.046875 L 9.796875 -11.265625 C 9.796875 -13.171875 8.695312 -14.125 6.5 -14.125 C 5.238281 -14.125 3.75 -13.847656 2.03125 -13.296875 L 1.71875 -14.15625 C 2.175781 -14.519531 2.972656 -14.90625 4.109375 -15.3125 C 5.242188 -15.726562 6.328125 -15.9375 7.359375 -15.9375 C 8.390625 -15.9375 9.253906 -15.800781 9.953125 -15.53125 C 10.648438 -15.257812 11.160156 -14.953125 11.484375 -14.609375 C 11.816406 -14.265625 12.078125 -13.789062 12.265625 -13.1875 C 12.453125 -12.59375 12.554688 -12.125 12.578125 -11.78125 C 12.597656 -11.4375 12.609375 -10.976562 12.609375 -10.40625 Z M 12.609375 -4.5625 "/></g></g></g><g fill="#ffffff" fill-opacity="1"><g transform="translate(277.790092, 186.156731)"><g><path d="M 5.46875 -23.46875 L 5.46875 0 L 2.578125 0 L 2.578125 -23.46875 Z M 5.46875 -23.46875 "/></g></g></g></svg>